<?xml version="1.0" encoding="UTF-8" standalone="no"?>
<!-- Created with Inkscape (http://www.inkscape.org/) -->

<svg
   xmlns:dc="http://purl.org/dc/elements/1.1/"
   xmlns:cc="http://creativecommons.org/ns#"
   xmlns:rdf="http://www.w3.org/1999/02/22-rdf-syntax-ns#"
   xmlns:svg="http://www.w3.org/2000/svg"
   xmlns="http://www.w3.org/2000/svg"
   xmlns:sodipodi="http://sodipodi.sourceforge.net/DTD/sodipodi-0.dtd"
   xmlns:inkscape="http://www.inkscape.org/namespaces/inkscape"
   width="210mm"
   height="297mm"
   viewBox="0 0 744.09448819 1052.3622047"
   id="svg2"
   version="1.1"
   inkscape:version="0.91 r13725"
   sodipodi:docname="disscussion.svg">
  <defs
     id="defs4" />
  <sodipodi:namedview
     id="base"
     pagecolor="#ffffff"
     bordercolor="#666666"
     borderopacity="1.0"
     inkscape:pageopacity="0.0"
     inkscape:pageshadow="2"
     inkscape:zoom="1"
     inkscape:cx="74.269895"
     inkscape:cy="649.47163"
     inkscape:document-units="px"
     inkscape:current-layer="layer1"
     showgrid="true"
     inkscape:snap-bbox="true"
     inkscape:object-nodes="true"
     inkscape:window-width="1945"
     inkscape:window-height="1091"
     inkscape:window-x="100"
     inkscape:window-y="136"
     inkscape:window-maximized="0">
    <inkscape:grid
       type="xygrid"
       id="grid4136" />
  </sodipodi:namedview>
  <metadata
     id="metadata7">
    <rdf:RDF>
      <cc:Work
         rdf:about="">
        <dc:format>image/svg+xml</dc:format>
        <dc:type
           rdf:resource="http://purl.org/dc/dcmitype/StillImage" />
        <dc:title></dc:title>
      </cc:Work>
    </rdf:RDF>
  </metadata>
  <g
     inkscape:label="Layer 1"
     inkscape:groupmode="layer"
     id="layer1">
    <text
       xml:space="preserve"
       style="font-style:normal;font-weight:normal;font-size:40px;line-height:125%;font-family:Sans;letter-spacing:0px;word-spacing:0px;fill:#000000;fill-opacity:1;stroke:none;stroke-width:1px;stroke-linecap:butt;stroke-linejoin:miter;stroke-opacity:1"
       x="507.59668"
       y="110.36219"
       id="text4140"
       sodipodi:linespacing="125%"
       inkscape:export-xdpi="90"
       inkscape:export-ydpi="90"><tspan
         sodipodi:role="line"
         id="tspan4142"
         x="511.1123"
         y="110.36219"
         style="font-size:20px;text-align:center;text-anchor:middle">Blir fler tangentnedslag </tspan><tspan
         sodipodi:role="line"
         x="507.59668"
         y="135.36218"
         style="font-size:20px;text-align:center;text-anchor:middle"
         id="tspan4144">med  spaces!</tspan></text>
    <path
       style="opacity:1;fill:none;fill-opacity:1;stroke:#000000;stroke-width:3;stroke-miterlimit:4;stroke-dasharray:none;stroke-opacity:1"
       d="m 410,72.362205 c -14.77333,0 -26.66602,11.89464 -26.66602,26.66797 l 0,26.666005 c 0,14.77333 11.89269,26.66572 26.66602,26.66602 l 43.33398,8.7e-4 c 0,10 15.65172,31.59541 30,40 -5,-20 -10,-40 20,-40 l 113.33398,-8.7e-4 c 14.77333,-1.1e-4 26.66602,-11.89269 26.66602,-26.66602 l 0,-26.666005 c 0,-14.77333 -11.89269,-26.66797 -26.66602,-26.66797 z"
       id="rect4146"
       inkscape:connector-curvature="0"
       sodipodi:nodetypes="sssscccsssss"
       inkscape:export-xdpi="90"
       inkscape:export-ydpi="90" />
    <text
       xml:space="preserve"
       style="font-style:normal;font-weight:normal;font-size:40px;line-height:125%;font-family:Sans;letter-spacing:0px;word-spacing:0px;fill:#000000;fill-opacity:1;stroke:none;stroke-width:1px;stroke-linecap:butt;stroke-linejoin:miter;stroke-opacity:1"
       x="228.92931"
       y="186.36305"
       id="text4140-1"
       sodipodi:linespacing="125%"
       inkscape:export-xdpi="90"
       inkscape:export-ydpi="90"><tspan
         sodipodi:role="line"
         x="228.92931"
         y="186.36305"
         style="font-size:20px;text-align:center;text-anchor:middle"
         id="tspan4177">Spaces ger full kontroll</tspan><tspan
         sodipodi:role="line"
         x="228.92931"
         y="211.36304"
         style="font-size:20px;text-align:center;text-anchor:middle"
         id="tspan4181">på layouten i alla lägen!</tspan></text>
    <path
       style="opacity:1;fill:none;fill-opacity:1;stroke:#000000;stroke-width:3;stroke-miterlimit:4;stroke-dasharray:none;stroke-opacity:1"
       d="m 340,152.3622 c 16.25066,0 29.33262,11.89464 29.33262,26.66797 l 0,26.66601 c 0,14.77333 -13.08196,26.66572 -29.33262,26.66602 l -47.66738,8.7e-4 c 0,10 -17.21689,31.59541 -33,40 5.5,-20 11,-40 -22,-40 L 112.66524,232.3622 C 96.41458,232.36209 83.33262,220.46951 83.33262,205.69618 l 0,-26.66601 c 0,-14.77333 13.08196,-26.66797 29.33262,-26.66797 z"
       id="rect4146-8"
       inkscape:connector-curvature="0"
       sodipodi:nodetypes="sssscccsssss"
       inkscape:export-xdpi="90"
       inkscape:export-ydpi="90" />
    <text
       xml:space="preserve"
       style="font-style:normal;font-weight:normal;font-size:40px;line-height:125%;font-family:Sans;letter-spacing:0px;word-spacing:0px;fill:#000000;fill-opacity:1;stroke:none;stroke-width:1px;stroke-linecap:butt;stroke-linejoin:miter;stroke-opacity:1"
       x="549.59668"
       y="250.36218"
       id="text4140-8"
       sodipodi:linespacing="125%"
       inkscape:export-xdpi="90"
       inkscape:export-ydpi="90"><tspan
         sodipodi:role="line"
         x="549.59668"
         y="250.36218"
         style="font-size:20px;text-align:center;text-anchor:middle"
         id="tspan4144-9">Tabs ger mindre filer</tspan></text>
    <path
       style="opacity:1;fill:none;fill-opacity:1;stroke:#000000;stroke-width:3;stroke-miterlimit:4;stroke-dasharray:none;stroke-opacity:1"
       d="M 446.66602,212.36156 C 431.89269,212.36156 420,221.28254 420,232.36253 l 0,19.99951 c 0,11.07999 11.89269,19.99928 26.66602,19.99951 L 490,272.3622 c 0,7.5 15.65172,23.69655 30,30 -5,-15 -10,-30 20,-30 l 113.33398,-6.5e-4 C 668.10731,272.36147 680,263.44203 680,252.36204 l 0,-19.99951 c 0,-11.07999 -11.89269,-20.00097 -26.66602,-20.00097 z"
       id="rect4146-7"
       inkscape:connector-curvature="0"
       sodipodi:nodetypes="sssscccsssss"
       inkscape:export-xdpi="90"
       inkscape:export-ydpi="90" />
    <text
       xml:space="preserve"
       style="font-style:normal;font-weight:normal;font-size:40px;line-height:125%;font-family:Sans;letter-spacing:0px;word-spacing:0px;fill:#000000;fill-opacity:1;stroke:none;stroke-width:1px;stroke-linecap:butt;stroke-linejoin:miter;stroke-opacity:1"
       x="415.59668"
       y="355.36218"
       id="text4140-8-9"
       sodipodi:linespacing="125%"
       inkscape:export-xdpi="90"
       inkscape:export-ydpi="90"><tspan
         sodipodi:role="line"
         x="419.1123"
         y="355.36218"
         style="font-size:20px;text-align:center;text-anchor:middle"
         id="tspan4230">Jag måste kunna ställa om </tspan><tspan
         sodipodi:role="line"
         x="419.1123"
         y="380.36218"
         style="font-size:20px;text-align:center;text-anchor:middle"
         id="tspan4234">enkelt till ett större indrag </tspan></text>
    <path
       style="opacity:1;fill:none;fill-opacity:1;stroke:#000000;stroke-width:3.00000024;stroke-miterlimit:4;stroke-dasharray:none;stroke-opacity:1"
       d="M 284.66583,322.36155 C 265.4605,322.36155 250,334.25617 250,349.02946 l 0,26.66597 c 0,14.7733 15.4605,26.66566 34.66583,26.66597 l 56.33418,8.6e-4 c 0,9.99999 20.34723,31.59535 39,39.99993 -6.5,-19.99996 -13,-39.99993 26,-39.99993 l 147.33418,-8.6e-4 c 19.20532,-1.1e-4 34.66582,-11.89267 34.66582,-26.66597 l 0,-26.66597 c 0,-14.77329 -15.4605,-26.66791 -34.66582,-26.66791 z"
       id="rect4146-7-6"
       inkscape:connector-curvature="0"
       sodipodi:nodetypes="sssscccsssss"
       inkscape:export-xdpi="90"
       inkscape:export-ydpi="90" />
    <text
       xml:space="preserve"
       style="font-style:normal;font-weight:normal;font-size:40px;line-height:125%;font-family:Sans;letter-spacing:0px;word-spacing:0px;fill:#000000;fill-opacity:1;stroke:none;stroke-width:1px;stroke-linecap:butt;stroke-linejoin:miter;stroke-opacity:1"
       x="198.92929"
       y="466.36304"
       id="text4140-1-0"
       sodipodi:linespacing="125%"
       inkscape:export-xdpi="90"
       inkscape:export-ydpi="90"><tspan
         sodipodi:role="line"
         x="198.92929"
         y="466.36304"
         style="font-size:20px;text-align:center;text-anchor:middle"
         id="tspan4181-8">Men då pajar ju all</tspan><tspan
         sodipodi:role="line"
         x="198.92929"
         y="491.36304"
         style="font-size:20px;text-align:center;text-anchor:middle"
         id="tspan4283">alginment ändå!</tspan></text>
    <path
       style="opacity:1;fill:none;fill-opacity:1;stroke:#000000;stroke-width:3;stroke-miterlimit:4;stroke-dasharray:none;stroke-opacity:1"
       d="m 310,432.3622 c 16.25066,0 29.33262,11.89464 29.33262,26.66797 l 0,26.66601 c 0,14.77333 -13.08196,26.66572 -29.33262,26.66602 l -47.66738,8.7e-4 c 0,10 -17.21689,31.59541 -33,40 5.5,-20 11,-40 -22,-40 L 82.66524,512.3622 C 66.41458,512.36209 53.33262,500.46951 53.33262,485.69618 l 0,-26.66601 c 0,-14.77333 13.08196,-26.66797 29.33262,-26.66797 z"
       id="rect4146-8-0"
       inkscape:connector-curvature="0"
       sodipodi:nodetypes="sssscccsssss"
       inkscape:export-xdpi="90"
       inkscape:export-ydpi="90" />
    <flowRoot
       xml:space="preserve"
       id="flowRoot4289"
       style="fill:black;stroke:none;stroke-opacity:1;stroke-width:1px;stroke-linejoin:miter;stroke-linecap:butt;fill-opacity:1;font-family:Sans;font-style:normal;font-weight:normal;font-size:40px;line-height:125%;letter-spacing:0px;word-spacing:0px"
       inkscape:export-xdpi="90"
       inkscape:export-ydpi="90"><flowRegion
         id="flowRegion4291"><rect
           id="rect4293"
           width="280"
           height="110"
           x="410"
           y="202.3622" /></flowRegion><flowPara
         id="flowPara4295"></flowPara></flowRoot>    <text
       xml:space="preserve"
       style="font-style:normal;font-weight:normal;font-size:40px;line-height:125%;font-family:Sans;letter-spacing:0px;word-spacing:0px;fill:#000000;fill-opacity:1;stroke:none;stroke-width:1px;stroke-linecap:butt;stroke-linejoin:miter;stroke-opacity:1"
       x="536.59668"
       y="509.36218"
       id="text4140-8-3"
       sodipodi:linespacing="125%"
       inkscape:export-xdpi="90"
       inkscape:export-ydpi="90"><tspan
         sodipodi:role="line"
         x="536.59668"
         y="509.36218"
         style="font-size:20px;text-align:center;text-anchor:middle"
         id="tspan4348">Noob du fattar ju ingenting!</tspan><tspan
         sodipodi:role="line"
         x="540.1123"
         y="534.36218"
         style="font-size:20px;text-align:center;text-anchor:middle"
         id="tspan4344"> </tspan><tspan
         sodipodi:role="line"
         x="536.59668"
         y="559.36218"
         style="font-size:20px;text-align:center;text-anchor:middle"
         id="tspan4342" /></text>
    <path
       style="opacity:1;fill:none;fill-opacity:1;stroke:#000000;stroke-width:3;stroke-miterlimit:4;stroke-dasharray:none;stroke-opacity:1"
       d="m 414.31683,472.36157 c -17.26111,0 -31.1565,9.9122 -31.1565,22.22329 l 0,22.22166 c 0,12.31109 13.89539,22.22141 31.1565,22.22167 l 50.63127,7.2e-4 c 0,8.33333 18.28742,26.32948 35.05191,33.33331 -5.84199,-16.66666 -11.68398,-33.33331 23.36793,-33.33331 l 132.41905,-7.2e-4 c 17.26113,-9e-5 31.1565,-9.91058 31.1565,-22.22167 l 0,-22.22166 c 0,-12.31109 -13.89537,-22.22329 -31.1565,-22.22329 z"
       id="rect4146-7-5"
       inkscape:connector-curvature="0"
       sodipodi:nodetypes="sssscccsssss"
       inkscape:export-xdpi="90"
       inkscape:export-ydpi="90" />
    <text
       xml:space="preserve"
       style="font-style:normal;font-weight:normal;font-size:40px;line-height:125%;font-family:Sans;letter-spacing:0px;word-spacing:0px;fill:#000000;fill-opacity:1;stroke:none;stroke-width:1px;stroke-linecap:butt;stroke-linejoin:miter;stroke-opacity:1"
       x="268.92929"
       y="616.36304"
       id="text4140-1-0-2"
       sodipodi:linespacing="125%"
       inkscape:export-xdpi="90"
       inkscape:export-ydpi="90"><tspan
         sodipodi:role="line"
         x="268.92929"
         y="616.36304"
         style="font-size:20px;text-align:center;text-anchor:middle"
         id="tspan4283-7">Din morsa...</tspan></text>
    <path
       style="opacity:1;fill:none;fill-opacity:1;stroke:#000000;stroke-width:3;stroke-miterlimit:4;stroke-dasharray:none;stroke-opacity:1"
       d="m 340,582.3622 c 10.25246,0 18.5058,7.43407 18.5058,16.6673 l 0,16.66608 c 0,9.23323 -8.25334,16.66589 -18.5058,16.66608 l -30.07313,5.4e-4 c 0,6.24994 -10.86205,19.74692 -20.81954,24.99973 3.46992,-12.49986 6.93984,-24.99973 -13.8797,-24.99973 l -78.65207,-5.4e-4 c -10.25247,-7e-5 -18.50581,-7.43285 -18.50581,-16.66608 l 0,-16.66608 c 0,-9.23323 8.25334,-16.6673 18.50581,-16.6673 z"
       id="rect4146-8-0-8"
       inkscape:connector-curvature="0"
       sodipodi:nodetypes="sssscccsssss"
       inkscape:export-xdpi="90"
       inkscape:export-ydpi="90" />
  </g>
</svg>
